# xmcd
#
# Track frame offsets:
#	150
#	19998
#	39135
#	58443
#	77648
#	94980
#	117450
#	131635
#	151918
#	166403
#	184365
#	201623
#	222468
#	242123
#	259430
#	279085
#
# Disc length: 3969 seconds
#
# Revision: 2
# Processed by: cddbd v1.5.2PL0 Copyright (c) Steve Scherf et al.
# Submitted via: EasyCDDAExtractor 15.2.5.1
#
DISCID=f40f7f10
DTITLE=曲精選第一集 - 國語金曲精選
DYEAR=1980
DGENRE=Alternative
TTITLE0=遲來的愛
TTITLE1=今年夏天
TTITLE2=不是每個戀曲都有美好的回憶
TTITLE3=離開那個不愛你的人
TTITLE4=親親如我
TTITLE5=明明白白我的心
TTITLE6=滾滾紅塵
TTITLE7=我是一只小小鳥
TTITLE8=寂寞難耐
TTITLE9=萝醒時分
TTITLE10=是不是不要有愛
TTITLE11=謝謝你的愛
TTITLE12=彎彎的月亮
TTITLE13=無言的結局
TTITLE14=野菊花
TTITLE15=瀟灑走一回
EXTD=
EXTT0=
EXTT1=
EXTT2=
EXTT3=
EXTT4=
EXTT5=
EXTT6=
EXTT7=
EXTT8=
EXTT9=
EXTT10=
EXTT11=
EXTT12=
EXTT13=
EXTT14=
EXTT15=
PLAYORDER=
